<svg xmlns="http://www.w3.org/2000/svg" viewBox="0 0 1200 630" width="1200" height="630">
  <defs>
    <linearGradient id="bg" x1="0%" y1="0%" x2="100%" y2="100%">
      <stop offset="0%" stop-color="#0a1929"/>
      <stop offset="50%" stop-color="#0d2b4e"/>
      <stop offset="100%" stop-color="#1a3a5c"/>
    </linearGradient>
    <linearGradient id="accentG" x1="0%" y1="0%" x2="100%" y2="0%">
      <stop offset="0%" stop-color="#e67e22"/>
      <stop offset="100%" stop-color="#f39c12"/>
    </linearGradient>
  </defs>
  <rect width="1200" height="630" fill="url(#bg)"/>
  <!-- Gear icon -->
  <g transform="translate(80, 80)">
    <path d="M 70 10 L 76 24 L 90 22 L 93 36 L 106 42 L 102 56 L 112 66 L 102 76 L 106 90 L 93 96 L 90 110 L 76 108 L 70 122 L 64 108 L 50 110 L 47 96 L 34 90 L 38 76 L 28 66 L 38 56 L 34 42 L 47 36 L 50 22 L 64 24 Z"
          fill="url(#accentG)" stroke="#e67e22" stroke-width="2"/>
    <circle cx="70" cy="66" r="22" fill="#fff"/>
    <circle cx="70" cy="66" r="10" fill="url(#accentG)"/>
    <rect x="66" y="0" width="8" height="16" rx="3" fill="url(#accentG)"/>
  </g>
  <!-- Company Name -->
  <text x="170" y="120" font-family="'Segoe UI', Arial, sans-serif" font-size="56" font-weight="800" fill="#fff" letter-spacing="3">BANGNIDA</text>
  <text x="170" y="165" font-family="'Segoe UI', Arial, sans-serif" font-size="22" font-weight="300" fill="url(#accentG)" letter-spacing="5">PRECISION CNC MACHINING</text>
  <!-- Tagline -->
  <text x="80" y="330" font-family="'Segoe UI', Arial, sans-serif" font-size="36" font-weight="700" fill="#fff">Precision CNC Machining Services</text>
  <text x="80" y="380" font-family="'Segoe UI', Arial, sans-serif" font-size="20" font-weight="400" fill="rgba(255,255,255,0.7)">3/4/5-Axis Milling · Turning · Swiss Machining · ISO 9001 Certified</text>
  <text x="80" y="430" font-family="'Segoe UI', Arial, sans-serif" font-size="18" font-weight="300" fill="rgba(255,255,255,0.5)">www.bangnida.com</text>
  <!-- Decorative line -->
  <line x1="80" y1="280" x2="500" y2="280" stroke="url(#accentG)" stroke-width="3"/>
  <!-- Bottom decorative pattern -->
  <g fill="rgba(255,255,255,0.03)">
    <circle cx="1150" cy="550" r="120"/>
    <circle cx="1000" cy="580" r="80"/>
    <circle cx="1100" cy="480" r="50"/>
  </g>
</svg>
