<svg xmlns="http://www.w3.org/2000/svg" viewBox="0 0 64 64" width="64" height="64">
  <defs>
    <linearGradient id="bgGrad" x1="0%" y1="0%" x2="100%" y2="100%">
      <stop offset="0%" stop-color="#0a3d7a"/>
      <stop offset="100%" stop-color="#1a5bb5"/>
    </linearGradient>
  </defs>

  <!-- Background circle -->
  <circle cx="32" cy="32" r="32" fill="url(#bgGrad)"/>

  <!-- Gear icon -->
  <g transform="translate(32, 32)">
    <path d="M 0 -22
             L 3 -17 L 9 -18 L 11 -13 L 16 -10 L 15 -4 L 19 0 L 15 4 L 16 10 L 11 13 L 9 18 L 3 17 L 0 22 L -3 17 L -9 18 L -11 13 L -16 10 L -15 4 L -19 0 L -15 -4 L -16 -10 L -11 -13 L -9 -18 L -3 -17 Z"
          fill="#fff"/>

    <!-- Inner circle -->
    <circle cx="0" cy="0" r="9" fill="url(#bgGrad)"/>

    <!-- Center dot -->
    <circle cx="0" cy="0" r="4" fill="#e67e22"/>
  </g>
</svg>
